<mxfile host="Electron" modified="2024-04-23T09:03:57.019Z" agent="Mozilla/5.0 (Windows NT 10.0; Win64; x64) AppleWebKit/537.36 (KHTML, like Gecko) draw.io/21.2.8 Chrome/112.0.5615.165 Electron/24.2.0 Safari/537.36" etag="m3DwS0IzGfClH8G_abAw" version="21.2.8" type="device">
  <diagram name="Page-1" id="thKdcMtj2CZ9jkWjg-bt">
    <mxGraphModel dx="711" dy="463" grid="1" gridSize="10" guides="1" tooltips="1" connect="1" arrows="1" fold="1" page="1" pageScale="1" pageWidth="827" pageHeight="1169" math="0" shadow="0">
      <root>
        <mxCell id="0" />
        <mxCell id="1" parent="0" />
        <mxCell id="JyUTE9kh7l0dRPIwGxR1-1" value="&lt;b&gt;&lt;font style=&quot;font-size: 17px;&quot; face=&quot;Verdana&quot;&gt;1&lt;/font&gt;&lt;/b&gt;" style="rounded=0;whiteSpace=wrap;html=1;fillColor=#f8cecc;strokeColor=#252323;" vertex="1" parent="1">
          <mxGeometry x="80" y="200" width="40" height="50" as="geometry" />
        </mxCell>
        <mxCell id="JyUTE9kh7l0dRPIwGxR1-2" value="&lt;b&gt;&lt;font style=&quot;font-size: 17px;&quot; face=&quot;Verdana&quot;&gt;2&lt;/font&gt;&lt;/b&gt;" style="rounded=0;whiteSpace=wrap;html=1;fillColor=#f8cecc;strokeColor=#252323;" vertex="1" parent="1">
          <mxGeometry x="200" y="200" width="40" height="50" as="geometry" />
        </mxCell>
        <mxCell id="JyUTE9kh7l0dRPIwGxR1-3" value="&lt;b&gt;&lt;font style=&quot;font-size: 17px;&quot; face=&quot;Verdana&quot;&gt;3&lt;/font&gt;&lt;/b&gt;" style="rounded=0;whiteSpace=wrap;html=1;fillColor=#f8cecc;strokeColor=#252323;" vertex="1" parent="1">
          <mxGeometry x="200" y="310" width="40" height="50" as="geometry" />
        </mxCell>
        <mxCell id="JyUTE9kh7l0dRPIwGxR1-4" value="&lt;b&gt;&lt;font style=&quot;font-size: 17px;&quot; face=&quot;Verdana&quot;&gt;4&lt;/font&gt;&lt;/b&gt;" style="rounded=0;whiteSpace=wrap;html=1;fillColor=#f8cecc;strokeColor=#252323;" vertex="1" parent="1">
          <mxGeometry x="340" y="310" width="40" height="50" as="geometry" />
        </mxCell>
        <mxCell id="JyUTE9kh7l0dRPIwGxR1-5" value="&lt;b&gt;&lt;font style=&quot;font-size: 17px;&quot; face=&quot;Verdana&quot;&gt;5&lt;/font&gt;&lt;/b&gt;" style="rounded=0;whiteSpace=wrap;html=1;fillColor=#f8cecc;strokeColor=#252323;" vertex="1" parent="1">
          <mxGeometry x="480" y="200" width="40" height="50" as="geometry" />
        </mxCell>
        <mxCell id="JyUTE9kh7l0dRPIwGxR1-6" value="&lt;b&gt;&lt;font style=&quot;font-size: 17px;&quot; face=&quot;Verdana&quot;&gt;6&lt;/font&gt;&lt;/b&gt;" style="rounded=0;whiteSpace=wrap;html=1;fillColor=#f8cecc;strokeColor=#252323;" vertex="1" parent="1">
          <mxGeometry x="340" y="120" width="40" height="50" as="geometry" />
        </mxCell>
        <mxCell id="JyUTE9kh7l0dRPIwGxR1-7" value="" style="endArrow=classic;html=1;rounded=0;exitX=1;exitY=0.5;exitDx=0;exitDy=0;" edge="1" parent="1" source="JyUTE9kh7l0dRPIwGxR1-1">
          <mxGeometry width="50" height="50" relative="1" as="geometry">
            <mxPoint x="370" y="280" as="sourcePoint" />
            <mxPoint x="200" y="225" as="targetPoint" />
          </mxGeometry>
        </mxCell>
        <mxCell id="JyUTE9kh7l0dRPIwGxR1-8" value="" style="endArrow=classic;html=1;rounded=0;exitX=0.5;exitY=1;exitDx=0;exitDy=0;entryX=0;entryY=0.5;entryDx=0;entryDy=0;" edge="1" parent="1" source="JyUTE9kh7l0dRPIwGxR1-1" target="JyUTE9kh7l0dRPIwGxR1-3">
          <mxGeometry width="50" height="50" relative="1" as="geometry">
            <mxPoint x="370" y="280" as="sourcePoint" />
            <mxPoint x="420" y="230" as="targetPoint" />
            <Array as="points">
              <mxPoint x="120" y="335" />
            </Array>
          </mxGeometry>
        </mxCell>
        <mxCell id="JyUTE9kh7l0dRPIwGxR1-9" value="" style="endArrow=classic;html=1;rounded=0;exitX=1;exitY=0.5;exitDx=0;exitDy=0;entryX=0;entryY=0.5;entryDx=0;entryDy=0;" edge="1" parent="1" source="JyUTE9kh7l0dRPIwGxR1-3" target="JyUTE9kh7l0dRPIwGxR1-4">
          <mxGeometry width="50" height="50" relative="1" as="geometry">
            <mxPoint x="370" y="280" as="sourcePoint" />
            <mxPoint x="420" y="230" as="targetPoint" />
          </mxGeometry>
        </mxCell>
        <mxCell id="JyUTE9kh7l0dRPIwGxR1-10" value="" style="endArrow=classic;html=1;rounded=0;exitX=1;exitY=0.5;exitDx=0;exitDy=0;entryX=0.5;entryY=1;entryDx=0;entryDy=0;" edge="1" parent="1" source="JyUTE9kh7l0dRPIwGxR1-4" target="JyUTE9kh7l0dRPIwGxR1-5">
          <mxGeometry width="50" height="50" relative="1" as="geometry">
            <mxPoint x="370" y="280" as="sourcePoint" />
            <mxPoint x="420" y="230" as="targetPoint" />
            <Array as="points">
              <mxPoint x="440" y="335" />
            </Array>
          </mxGeometry>
        </mxCell>
        <mxCell id="JyUTE9kh7l0dRPIwGxR1-11" value="" style="endArrow=classic;html=1;rounded=0;exitX=1;exitY=0.5;exitDx=0;exitDy=0;entryX=0.5;entryY=0;entryDx=0;entryDy=0;" edge="1" parent="1" source="JyUTE9kh7l0dRPIwGxR1-6" target="JyUTE9kh7l0dRPIwGxR1-5">
          <mxGeometry width="50" height="50" relative="1" as="geometry">
            <mxPoint x="370" y="280" as="sourcePoint" />
            <mxPoint x="420" y="230" as="targetPoint" />
            <Array as="points">
              <mxPoint x="460" y="145" />
            </Array>
          </mxGeometry>
        </mxCell>
        <mxCell id="JyUTE9kh7l0dRPIwGxR1-12" value="" style="endArrow=classic;html=1;rounded=0;exitX=1;exitY=0.5;exitDx=0;exitDy=0;entryX=0.5;entryY=0;entryDx=0;entryDy=0;" edge="1" parent="1" source="JyUTE9kh7l0dRPIwGxR1-2" target="JyUTE9kh7l0dRPIwGxR1-4">
          <mxGeometry width="50" height="50" relative="1" as="geometry">
            <mxPoint x="370" y="280" as="sourcePoint" />
            <mxPoint x="420" y="230" as="targetPoint" />
            <Array as="points">
              <mxPoint x="330" y="225" />
            </Array>
          </mxGeometry>
        </mxCell>
        <mxCell id="JyUTE9kh7l0dRPIwGxR1-13" value="" style="endArrow=classic;html=1;rounded=0;exitX=0.5;exitY=0;exitDx=0;exitDy=0;entryX=0;entryY=0.5;entryDx=0;entryDy=0;" edge="1" parent="1" source="JyUTE9kh7l0dRPIwGxR1-1" target="JyUTE9kh7l0dRPIwGxR1-6">
          <mxGeometry width="50" height="50" relative="1" as="geometry">
            <mxPoint x="340" y="280" as="sourcePoint" />
            <mxPoint x="390" y="230" as="targetPoint" />
            <Array as="points">
              <mxPoint x="130" y="145" />
            </Array>
          </mxGeometry>
        </mxCell>
        <mxCell id="JyUTE9kh7l0dRPIwGxR1-14" value="" style="endArrow=classic;html=1;rounded=0;exitX=0.5;exitY=0;exitDx=0;exitDy=0;entryX=0;entryY=0.75;entryDx=0;entryDy=0;" edge="1" parent="1" source="JyUTE9kh7l0dRPIwGxR1-3" target="JyUTE9kh7l0dRPIwGxR1-6">
          <mxGeometry width="50" height="50" relative="1" as="geometry">
            <mxPoint x="340" y="280" as="sourcePoint" />
            <mxPoint x="390" y="230" as="targetPoint" />
            <Array as="points">
              <mxPoint x="300" y="158" />
            </Array>
          </mxGeometry>
        </mxCell>
        <mxCell id="JyUTE9kh7l0dRPIwGxR1-15" value="&lt;font style=&quot;font-size: 16px;&quot;&gt;7&lt;/font&gt;" style="text;html=1;align=center;verticalAlign=middle;resizable=0;points=[];autosize=1;strokeColor=none;fillColor=none;" vertex="1" parent="1">
          <mxGeometry x="145" y="201" width="30" height="30" as="geometry" />
        </mxCell>
        <mxCell id="JyUTE9kh7l0dRPIwGxR1-17" value="&lt;font style=&quot;font-size: 16px;&quot;&gt;9&lt;/font&gt;" style="text;html=1;align=center;verticalAlign=middle;resizable=0;points=[];autosize=1;strokeColor=none;fillColor=none;" vertex="1" parent="1">
          <mxGeometry x="145" y="312" width="30" height="30" as="geometry" />
        </mxCell>
        <mxCell id="JyUTE9kh7l0dRPIwGxR1-18" value="&lt;font style=&quot;font-size: 16px;&quot;&gt;11&lt;/font&gt;" style="text;html=1;align=center;verticalAlign=middle;resizable=0;points=[];autosize=1;strokeColor=none;fillColor=none;" vertex="1" parent="1">
          <mxGeometry x="264" y="308" width="40" height="30" as="geometry" />
        </mxCell>
        <mxCell id="JyUTE9kh7l0dRPIwGxR1-19" value="&lt;font style=&quot;font-size: 16px;&quot;&gt;15&lt;/font&gt;" style="text;html=1;align=center;verticalAlign=middle;resizable=0;points=[];autosize=1;strokeColor=none;fillColor=none;" vertex="1" parent="1">
          <mxGeometry x="275" y="199" width="40" height="30" as="geometry" />
        </mxCell>
        <mxCell id="JyUTE9kh7l0dRPIwGxR1-20" value="&lt;font style=&quot;font-size: 16px;&quot;&gt;6&lt;/font&gt;" style="text;html=1;align=center;verticalAlign=middle;resizable=0;points=[];autosize=1;strokeColor=none;fillColor=none;" vertex="1" parent="1">
          <mxGeometry x="443" y="268" width="30" height="30" as="geometry" />
        </mxCell>
        <mxCell id="JyUTE9kh7l0dRPIwGxR1-21" value="&lt;font style=&quot;font-size: 16px;&quot;&gt;2&lt;/font&gt;" style="text;html=1;align=center;verticalAlign=middle;resizable=0;points=[];autosize=1;strokeColor=none;fillColor=none;" vertex="1" parent="1">
          <mxGeometry x="208" y="261" width="30" height="30" as="geometry" />
        </mxCell>
        <mxCell id="JyUTE9kh7l0dRPIwGxR1-22" value="&lt;font style=&quot;font-size: 16px;&quot;&gt;14&lt;/font&gt;" style="text;html=1;align=center;verticalAlign=middle;resizable=0;points=[];autosize=1;strokeColor=none;fillColor=none;" vertex="1" parent="1">
          <mxGeometry x="200" y="117" width="40" height="30" as="geometry" />
        </mxCell>
        <mxCell id="JyUTE9kh7l0dRPIwGxR1-23" value="&lt;font style=&quot;font-size: 16px;&quot;&gt;9&lt;/font&gt;" style="text;html=1;align=center;verticalAlign=middle;resizable=0;points=[];autosize=1;strokeColor=none;fillColor=none;" vertex="1" parent="1">
          <mxGeometry x="415" y="118" width="30" height="30" as="geometry" />
        </mxCell>
      </root>
    </mxGraphModel>
  </diagram>
</mxfile>
